<?xml version="1.0" encoding="UTF-8" standalone="no"?>
<svg
   version="1.1"
   width="1056"
   height="1043"
   id="svg42"
   sodipodi:docname="logo-light.svg"
   inkscape:version="1.4.2 (f4327f4, 2025-05-13)"
   xmlns:inkscape="http://www.inkscape.org/namespaces/inkscape"
   xmlns:sodipodi="http://sodipodi.sourceforge.net/DTD/sodipodi-0.dtd"
   xmlns="http://www.w3.org/2000/svg"
   xmlns:svg="http://www.w3.org/2000/svg">
  <defs
     id="defs42" />
  <sodipodi:namedview
     id="namedview42"
     pagecolor="#ffffff"
     bordercolor="#000000"
     borderopacity="0.25"
     inkscape:showpageshadow="2"
     inkscape:pageopacity="0.0"
     inkscape:pagecheckerboard="0"
     inkscape:deskcolor="#d1d1d1"
     inkscape:zoom="0.23485644"
     inkscape:cx="253.34626"
     inkscape:cy="777.07046"
     inkscape:window-width="1920"
     inkscape:window-height="1051"
     inkscape:window-x="-9"
     inkscape:window-y="-9"
     inkscape:window-maximized="1"
     inkscape:current-layer="svg42" />
  <ellipse
     style="fill:#fdf7e2;fill-opacity:1;stroke-width:0.725669"
     id="path44"
     cx="528.39618"
     cy="517.85834"
     rx="528.39618"
     ry="517.85834" />
  <g
     id="g44"
     transform="translate(-85.045922,-100.92107)">
    <path
       d="M 0,0 C 2.6999565,2.4210665 4.2723599,5.0103843 6.0117187,8.1796875 6.596228,9.2384912 7.1807373,10.297295 7.782959,11.388184 8.4114575,12.538833 9.0399561,13.689482 9.6875,14.875 c 0.667563,1.213321 1.335623,2.42637 2.00415,3.63916 1.401682,2.544602 2.800482,5.090757 4.197022,7.638184 2.024957,3.69265 4.058807,7.380331 6.095703,11.066406 2.657461,4.809816 5.312581,9.620909 7.964844,14.433594 2.729167,4.951961 5.461111,9.902378 8.195312,14.851562 5.998538,10.859673 11.990322,21.722487 17.917969,32.621094 6.264598,11.514 12.637768,22.96707 19.01416,34.41943 3.144675,5.64988 6.2838,11.30284 9.42334,16.95557 3.736833,6.72737 7.474299,13.45438 11.214844,20.17969 8.454546,15.20374 16.871566,30.42778 25.269046,45.66308 3.0043,5.4503 6.01122,10.89915 9.01794,16.34812 0.99726,1.80746 1.99433,3.61503 2.99133,5.42264 3.02566,5.48533 6.05235,10.97007 9.08379,16.4522 1.70415,3.08191 3.40753,6.16424 5.11055,9.24677 0.33384,0.60419 0.66767,1.20838 1.01163,1.83087 4.54019,8.2203 9.03287,16.46506 13.48837,24.73163 4.1386,7.67855 8.36855,15.29651 12.6875,22.875 4.90833,8.61573 9.64894,17.31278 14.3125,26.0625 4.79453,8.99469 9.63795,17.95545 14.61328,26.85156 3.46813,6.20136 6.89386,12.42615 10.32422,18.64844 0.69,1.25123 1.38003,2.50245 2.07007,3.75366 1.40286,2.54381 2.80559,5.08768 4.20825,7.63159 2.03947,3.69872 4.07967,7.39704 6.12012,11.09522 0.3292,0.59668 0.6584,1.19336 0.99757,1.80812 1.64789,2.98673 3.29602,5.97333 4.94457,8.9597 3.14401,5.69608 6.28542,11.39355 9.41928,17.09522 1.49056,2.71157 2.98236,5.42246 4.47427,8.1333 0.71514,1.30027 1.42967,2.60089 2.14356,3.90185 0.98585,1.7965 1.97394,3.59176 2.96215,5.38696 0.56324,1.02513 1.12648,2.05026 1.70679,3.10645 1.13107,2.20528 1.13107,2.20528 2.32837,3.31543 0.3246,-0.55945 0.6492,-1.11891 0.98364,-1.69531 14.89351,-25.64807 30.07237,-51.12571 45.35669,-76.54248 1.5545,-2.58717 3.10592,-5.17616 4.65576,-7.76612 7.87526,-13.15736 15.83317,-26.26416 23.79834,-39.36718 3.21938,-5.29637 6.43543,-10.59475 9.65168,-15.89301 1.04949,-1.72866 2.09926,-3.45716 3.1491,-5.18561 3.31174,-5.45276 6.62157,-10.90666 9.92545,-16.36419 1.55543,-2.56912 3.11183,-5.13764 4.6683,-7.70612 0.73958,-1.22106 1.47869,-2.44241 2.21729,-3.66406 1.02614,-1.69718 2.05405,-3.39329 3.08203,-5.08936 0.58306,-0.96341 1.16612,-1.92682 1.76685,-2.91943 C 366,274 366,274 368.07494,271.39496 c 2.47755,-4.3693 2.50053,-7.59035 2.47096,-12.52142 0.0103,-0.89821 0.0207,-1.79641 0.0313,-2.72184 0.0294,-2.95439 0.0309,-5.90811 0.0322,-8.86264 0.015,-2.0541 0.0317,-4.10819 0.0501,-6.16226 0.0437,-5.3955 0.0637,-10.79084 0.0787,-16.18649 0.0196,-5.51015 0.0616,-11.02012 0.10162,-16.53015 C 370.91512,197.60682 370.96543,186.80353 371,176 c -0.61875,-0.29262 -1.2375,-0.58523 -1.875,-0.88672 -6.38816,-3.34674 -11.15773,-10.5022 -13.50391,-17.17578 -2.13469,-10.09616 -1.69757,-21.0127 3.59766,-30.00781 C 364.3666,120.4081 371.43107,115.04753 380,112 c 2.7854,-0.41878 5.49909,-0.47851 8.3125,-0.4375 0.74838,0.01 1.49676,0.0195 2.26782,0.0295 10.17122,0.32477 16.78076,3.82021 24.15015,10.82984 8.23475,9.35445 10.03996,18.46518 9.26953,30.57812 -1.78235,9.80291 -7.88932,18.35215 -16,24 -1.328,0.67723 -2.66078,1.34524 -4,2 3.8e-4,0.57793 7.5e-4,1.15586 10e-4,1.7513 0.007,14.13421 -0.0191,28.26804 -0.0814,42.40212 -0.0294,6.8355 -0.0479,13.67068 -0.0398,20.50625 0.008,6.60735 -0.0161,13.21412 -0.0584,19.82136 -0.0111,2.5099 -0.0119,5.01986 -0.002,7.52976 C 403.869,285.22036 403.47091,297.1382 397,310 c -0.58547,1.16701 -1.17093,2.33402 -1.77414,3.53639 -1.66171,3.20601 -3.4237,6.33456 -5.22586,9.46361 -0.64937,1.14864 -1.29873,2.29727 -1.96777,3.48071 -4.92405,8.69695 -9.97174,17.32374 -15.0354,25.93994 -4.1394,7.05573 -8.11889,14.18561 -12.03394,21.36768 -4.33469,7.93555 -8.86693,15.74936 -13.42041,23.56079 -10.27082,17.65124 -20.40461,35.38168 -30.52637,53.11865 -3.00344,5.26271 -6.01041,10.5234 -9.01712,15.78424 -1.66647,2.91592 -3.33272,5.83196 -4.99899,8.74799 -0.66667,1.16667 -1.33333,2.33333 -2,3.5 -0.33,0.5775 -0.66,1.155 -1,1.75 -1,1.75 -2,3.5 -3,5.25 -0.32999,0.57748 -0.65998,1.15497 -0.99997,1.74995 -0.66676,1.16683 -1.33353,2.33365 -2.0003,3.50046 -1.66532,2.91422 -3.33049,5.82852 -4.99534,8.743 -3.01594,5.27935 -6.03301,10.55803 -9.05569,15.83352 -1.69198,2.9531 -3.38307,5.9067 -5.0737,8.86057 -0.33256,0.581 -0.66512,1.16201 -1.00775,1.76062 -4.71395,8.23973 -9.37099,16.50982 -13.99225,24.80188 -5.07125,9.09933 -10.27797,18.10967 -15.55518,27.09082 -4.38611,7.49219 -8.62536,15.05827 -12.81982,22.65918 -5.30212,9.60813 -10.73961,19.12179 -16.30078,28.58203 -4.15823,7.08959 -8.20254,14.23622 -12.19922,21.41797 -4.84122,8.69033 -9.75105,17.33683 -14.75,25.9375 -0.59684,1.03125 -1.19367,2.0625 -1.80859,3.125 -0.55301,0.94746 -1.10602,1.89492 -1.67579,2.87109 -0.73041,1.25382 -0.73041,1.25382 -1.47558,2.53296 C 182,687 182,687 180,689 c -5.64911,-9.38714 -11.05799,-18.84843 -16.11353,-28.56885 -3.64997,-7.01263 -7.4189,-13.95545 -11.2163,-20.88916 -2.63589,-4.81383 -5.26264,-9.63206 -7.86548,-14.46387 -5.35584,-9.93984 -10.77203,-19.8332 -16.36719,-29.64062 -4.91659,-8.62396 -9.57821,-17.35485 -14.13574,-26.1731 -4.13447,-7.98752 -8.45514,-15.85445 -12.86035,-23.69506 -2.930837,-5.22427 -5.842272,-10.45936 -8.75391,-15.69434 -0.321188,-0.5773 -0.642376,-1.1546 -0.973297,-1.74939 C 86.71459,519.13554 81.791667,510.10609 76.9104,501.05127 72.876815,493.58267 68.762535,486.16144 64.625,478.75 59.443784,469.46682 54.369658,460.1342 49.375,450.75 44.247278,441.11745 38.978889,431.58188 33.570801,422.10425 30.18219,416.14712 26.916558,410.14041 23.75,404.0625 c -3.126185,-5.99311 -6.284294,-11.96336 -9.5625,-17.875 -0.349014,-0.63994 -0.698027,-1.27988 -1.057617,-1.93921 C 9.9374881,378.54443 6.5163292,373.34896 0.5625,370.25 c -0.72058594,-0.38672 -1.44117188,-0.77344 -2.1835937,-1.17188 -6.2737406,-2.84327 -11.5300473,-3.37962 -18.3247073,-3.38452 -0.986218,-0.008 -1.972437,-0.0166 -2.98854,-0.0252 -3.253698,-0.024 -6.507195,-0.0329 -9.760971,-0.0395 -2.271964,-0.009 -4.543926,-0.0181 -6.815888,-0.0274 -4.762883,-0.0165 -9.525695,-0.0242 -14.288605,-0.0271 -6.07925,-0.005 -12.157832,-0.043 -18.236894,-0.0887 -4.694577,-0.0299 -9.388995,-0.037 -14.083659,-0.038 -2.239728,-0.004 -4.479458,-0.0166 -6.719093,-0.0375 -19.611509,-0.26552 -19.611509,-0.26552 -36.426169,9.01947 -4.98041,5.49695 -8.15176,12.13469 -11.48438,18.69531 -0.69999,1.3495 -1.40167,2.69813 -2.10498,4.0459 -1.40425,2.69259 -2.80258,5.38812 -4.19678,8.08594 -2.61326,5.04038 -5.33562,10.01948 -8.07324,14.99316 -4.86242,8.87367 -9.66992,17.77603 -14.45361,26.69238 C -175.33425,457.65712 -181.17528,468.32135 -187,479 c -24.42,0 -48.84,0 -74,0 1.47394,-4.42183 2.85385,-7.87515 5.01953,-11.90234 0.90456,-1.68731 0.90456,-1.68731 1.82739,-3.4087 0.65497,-1.20894 1.31016,-2.41776 1.96558,-3.62646 0.68203,-1.26603 1.36392,-2.53215 2.04565,-3.79834 4.55554,-8.43911 9.25168,-16.79138 14.01416,-25.11548 5.31079,-9.34664 10.29656,-18.85904 15.29709,-28.37375 5.26031,-10.00316 10.65832,-19.90229 16.27982,-29.70852 3.67791,-6.44334 7.15288,-12.97154 10.55078,-19.56641 3.92517,-7.61763 7.99508,-15.12404 12.25,-22.5625 5.14626,-8.99833 10.08118,-18.09332 14.9375,-27.25 5.35962,-10.10153 10.79446,-20.15087 16.38379,-30.12744 3.12099,-5.59239 6.21008,-11.20251 9.30371,-16.81006 0.34608,-0.627 0.69217,-1.254 1.04874,-1.89999 4.44854,-8.06027 8.8702,-16.13461 13.26376,-24.22501 3.96276,-7.29627 8.01606,-14.53514 12.125,-21.75 4.9275,-8.65814 9.68938,-17.397 14.375,-26.1875 5.201038,-9.75713 10.480104,-19.46237 15.876465,-29.11279 3.076894,-5.51665 6.132141,-11.04531 9.186035,-16.57471 0.512659,-0.92806 0.512659,-0.92806 1.035675,-1.87488 5.515445,-9.9903 10.946972,-20.02317 16.341766,-30.07922 3.674603,-6.842802 7.403386,-13.651545 11.190918,-20.432375 3.220399,-5.769005 6.395717,-11.561733 9.556641,-17.363525 0.505796,-0.928367 1.011592,-1.856733 1.532715,-2.813232 2.01312,-3.696688 4.024995,-7.394052 6.036621,-11.091553 5.985165,-10.998819 11.995661,-21.983444 18.039429,-32.950165 0.713103,-1.294048 1.425917,-2.588255 2.1384274,-3.882629 1.0012484,-1.81849 2.0037875,-3.636262 3.0067139,-5.453827 0.5782251,-1.048733 1.1564502,-2.0974661 1.7521972,-3.1779788 C -3.1254769,5.2232698 -1.5830878,2.6047056 0,0 Z"
       fill="#105815"
       transform="translate(632,291)"
       id="path2" />
    <path
       d="m 0,0 c 1.6431525,-0.00256327 1.6431525,-0.00256327 3.3195001,-0.00517833 3.6712459,-0.00329471 7.3423089,0.00770868 11.0135379,0.01863658 2.631394,5.6412e-4 5.262787,2.4755e-4 7.894181,-8.8501e-4 5.66555,-0.0010478 11.331054,0.0052181 16.996593,0.01647568 8.191374,0.01626594 16.382725,0.02146413 24.574113,0.02397598 13.290526,0.0043754 26.581027,0.01768025 39.871535,0.03660523 12.90918,0.01836284 25.81835,0.03251737 38.72754,0.04101562 1.19393,7.8817e-4 1.19393,7.8817e-4 2.41198,0.001592 3.99312,0.00261 7.98624,0.005138 11.97937,0.007624 33.11794,0.0207276 66.23585,0.0559489 99.35377,0.10064721 -1.22611,3.14670734 -2.42347,5.86538484 -4.39844,8.60937494 -0.47324,0.6633838 -0.94649,1.3267681 -1.43408,2.0102541 -0.50902,0.703022 -1.01804,1.406045 -1.54248,2.130371 -1.08861,1.52339 -2.17715,3.046829 -3.26562,4.570313 -0.55752,0.776337 -1.11504,1.552675 -1.68946,2.352539 -2.61249,3.640684 -5.20675,7.294144 -7.79492,10.952148 -0.4921,0.695288 -0.9842,1.390576 -1.49121,2.106934 -4.93274,6.998098 -9.67392,14.118819 -14.38379,21.268066 -0.66,0.99 -1.32,1.98 -2,3 -2.04449,0.270874 -2.04449,0.270874 -4.59473,0.130859 -0.9557,-0.04153 -1.91139,-0.08306 -2.89605,-0.125854 -1.55917,-0.07982 -1.55917,-0.07982 -3.14984,-0.161255 -2.20822,-0.05575 -4.41657,-0.106362 -6.625,-0.152344 -3.48082,-0.0816 -6.94951,-0.189422 -10.42579,-0.387207 -12.99391,-1.058889 -12.99391,-1.058889 -24.69796,3.503876 -4.21863,4.437677 -7.29053,9.438366 -10.22426,14.784805 -2.15592,3.743268 -4.78672,7.077974 -7.44887,10.46962 -4.78559,6.332782 -9.43487,12.759288 -14.06689,19.204831 -4.62484,6.42292 -9.35073,12.7656 -14.1167,19.08423 -0.44328,0.5916 -0.88656,1.1832 -1.34327,1.79273 -1.01387,1.33375 -2.04648,2.65333 -3.09082,3.96338 -0.55026,0.70052 -1.10053,1.40104 -1.66748,2.1228 -0.50668,0.63317 -1.01336,1.26634 -1.5354,1.9187 -1.43449,2.01673 -1.43449,2.01673 -1.11694,5.53833 0.88893,3.1925 0.88893,3.1925 2.03516,5.64453 3.0639,8.47224 1.08181,17.55591 -2.35547,25.58594 -5.47788,10.05126 -14.1814,17.29328 -25.136721,20.57422 -10.428384,2.08247 -19.909938,0.51526 -28.980469,-4.96485 -5.891037,-4.2093 -9.90421,-9.32114 -13.5625,-15.52734 -0.362226,-0.6007 -0.724453,-1.20141 -1.097656,-1.82031 -3.614794,-7.4986 -2.991969,-18.18557 -1.246094,-26.1875 3.671107,-10.09555 10.930866,-17.93557 20.34375,-22.99219 5.241495,-1.86974 9.942535,-2.35186 15.4375,-2.3125 0.746287,0.001 1.492574,0.003 2.261475,0.004 5.340859,0.0935 9.492926,0.85339 14.301025,3.30859 0.272959,-0.58379 0.545918,-1.16757 0.827149,-1.76904 1.150624,-2.18868 2.411188,-3.98608 3.938476,-5.92627 0.553089,-0.70649 1.106177,-1.41298 1.676026,-2.14087 0.596759,-0.75531 1.193509,-1.51062 1.808349,-2.28882 1.27481,-1.62625 2.54954,-3.25255 3.82422,-4.87891 0.65275,-0.83031 1.3055,-1.66063 1.97803,-2.51611 3.01482,-3.838625 6.01361,-7.689656 9.01025,-11.542481 0.57186,-0.735249 1.14372,-1.470498 1.73291,-2.228027 4.12467,-5.308458 8.23587,-10.627107 12.32959,-15.959473 0.7987,-1.036527 0.7987,-1.036527 1.61353,-2.093994 0.50136,-0.654763 1.00273,-1.309526 1.51928,-1.984131 0.65187,-0.849331 0.65187,-0.849331 1.3169,-1.71582 1.89231,-2.596985 3.64795,-5.279476 5.42529,-7.956055 -14.30002,0.06068 -28.59986,0.138476 -42.899686,0.235715 -6.640538,0.04466 -13.280967,0.08393 -19.921603,0.110721 -6.412705,0.02607 -12.825176,0.06651 -19.237735,0.11675 -2.44228,0.01664 -4.8846,0.02817 -7.326928,0.03443 -3.430028,0.0097 -6.85946,0.03777 -10.289341,0.07001 -1.502968,-0.0022 -1.502968,-0.0022 -3.0363,-0.0043 C 26.468991,57.948945 18.112026,60.60647 10.14212,68.240647 3.4040456,75.440042 -1.8623104,83.980886 -7.3774109,92.12346 c -3.3831221,4.989749 -6.8281411,9.93394 -10.2929691,14.86719 -5.123462,7.29921 -10.225242,14.61301 -15.3125,21.9375 -4.659553,6.70762 -9.338877,13.39985 -14.0625,20.0625 -5.347963,7.54702 -10.573717,15.17469 -15.785156,22.81641 -2.535641,3.71772 -5.087986,7.42311 -7.652344,11.12109 -0.697382,1.01449 -1.394765,2.02898 -2.113281,3.07422 -1.678248,2.40288 -3.381833,4.77197 -5.117187,7.13281 -0.490972,0.68167 -0.981944,1.36335 -1.487793,2.06567 -0.936727,1.30049 -1.886354,2.59185 -2.852539,3.87061 -7.655877,10.73828 -8.389969,22.89685 -8.290039,35.64868 -0.0022,1.61291 -0.006,3.22583 -0.01151,4.83873 -0.0096,4.34076 0.0055,8.68111 0.02591,13.02182 0.0177,4.56147 0.01404,9.12293 0.01328,13.68443 0.0019,7.65256 0.01915,15.30496 0.04654,22.95746 0.03149,8.83027 0.042,17.66037 0.04053,26.4907 -0.0014,9.43275 0.01254,18.86545 0.03089,28.29818 0.0043,2.70588 0.0057,5.41176 0.0065,8.11764 0.002,4.25845 0.0143,8.51675 0.03433,12.77516 0.0058,1.55717 0.0083,3.11437 0.0071,4.67155 -0.0082,17.58235 3.430479,28.97154 15.725838,41.92656 2.439583,2.60296 4.702075,5.27498 6.941406,8.05078 3.468698,4.29604 7.019118,8.50699 10.625,12.6875 3.624425,4.20273 7.19568,8.4355 10.6875,12.75 2.847085,3.50884 5.770626,6.90867 8.8125,10.25 3.845588,4.22417 7.46731,8.58953 11.0625,13.02734 2.706411,3.30061 5.467913,6.54835 8.25,9.78516 0.504185,0.5866 1.00837,1.17321 1.527832,1.77759 1.552283,1.80411 3.105747,3.6072 4.659668,5.40991 2.0640503,2.3945 4.126615,4.79027 6.1875004,7.1875 0.4988672,0.57919 0.9977343,1.15838 1.5117187,1.75513 3.1134369,3.6284 6.1298715,7.32052 9.1132813,11.05737 6.6720366,8.15737 13.6502296,13.79015 24.1874996,16 1.73879,0.0888 3.480625,0.12465 5.22168,0.12457 1.056754,0.003 2.113509,0.005 3.202286,0.008 1.15431,-0.002 2.30862,-0.004 3.497909,-0.006 1.220012,0.002 2.440024,0.004 3.697007,0.006 2.652396,0.004 5.304744,0.006 7.957138,0.006 4.204273,10e-4 8.408459,0.014 12.612701,0.0296 1.066192,0.004 1.066192,0.004 2.153924,0.008 1.453556,0.005 2.907113,0.0105 4.360669,0.0159 9.783642,0.035 19.567176,0.0617 29.350881,0.0592 6.60421,-0.002 13.20812,0.0146 19.81223,0.0507 3.48922,0.0184 6.97794,0.0279 10.46719,0.0155 3.90339,-0.0137 7.80603,0.0116 11.70935,0.0397 1.13812,-0.0102 2.27623,-0.0204 3.44884,-0.0309 10.51637,0.13487 19.73697,3.37547 27.64491,10.37757 0.78452,0.69129 0.78452,0.69129 1.58488,1.39655 8.02533,7.19691 15.52692,14.97719 23.0909,22.65033 2.32482,2.35266 4.6512,4.70372 6.98064,7.05182 1.43543,1.44746 2.86818,2.89758 4.29763,4.35095 3.80259,3.84032 7.6872,7.46766 11.85386,10.91199 1.88072,1.7708 3.51309,3.59016 5.18383,5.55619 0.53833,0.63223 1.07666,1.26445 1.6313,1.91583 0.40928,0.48287 0.81856,0.96573 1.24024,1.46322 -28.69714,0.0914 -57.39427,0.1621 -86.09153,0.20426 -3.39307,0.005 -6.78615,0.0102 -10.17922,0.0155 -1.01319,0.002 -1.01319,0.002 -2.04685,0.003 -10.91646,0.0174 -21.83283,0.0489 -32.749236,0.0857 -11.213164,0.0375 -22.4263,0.0593 -33.639527,0.0677 -6.293307,0.005 -12.586422,0.0174 -18.879666,0.0466 -5.930217,0.0273 -11.860164,0.0355 -17.790438,0.0295 -2.169894,10e-4 -4.339798,0.009 -6.509638,0.0244 -16.636293,0.11228 -31.0787939,-0.70289 -43.661253,-12.98756 -6.460865,-6.55873 -12.393746,-13.52668 -18.144043,-20.71192 -2.66139,-3.20177 -5.463244,-6.23966 -8.308594,-9.27734 -4.479203,-4.78312 -8.684518,-9.70816 -12.789062,-14.82031 -2.320287,-2.81222 -4.741649,-5.49766 -7.210938,-8.17969 -4.113789,-4.46985 -7.970873,-9.09045 -11.785156,-13.81641 -2.171172,-2.63068 -4.417257,-5.16302 -6.714844,-7.68359 -3.918912,-4.29992 -7.591708,-8.7592 -11.25,-13.28125 -2.185015,-2.64023 -4.441715,-5.18605 -6.750005,-7.71875 -3.91891,-4.29992 -7.59171,-8.7592 -11.25,-13.28125 -2.18502,-2.64023 -4.44171,-5.18605 -6.75,-7.71875 -3.91818,-4.29912 -7.59516,-8.75192 -11.23828,-13.28516 -2.21821,-2.66262 -4.55621,-5.1471 -6.94922,-7.65234 -9.19339,-10.12558 -12.63221,-21.74139 -12.57993,-35.15035 -0.005,-0.86902 -0.009,-1.73804 -0.0137,-2.63339 -0.0126,-2.88765 -0.011,-5.77512 -0.009,-8.66279 -0.006,-2.08036 -0.0128,-4.16071 -0.0203,-6.24106 -0.0176,-5.63441 -0.0224,-11.26875 -0.0236,-16.90317 -0.001,-3.52439 -0.006,-7.04876 -0.011,-10.57314 -0.0185,-12.30728 -0.0267,-24.61451 -0.0251,-36.92179 0.001,-11.45337 -0.0199,-22.90654 -0.0515,-34.35986 -0.0262,-9.84997 -0.0369,-19.69989 -0.0356,-29.5499 5e-4,-5.87562 -0.005,-11.75107 -0.0264,-17.62665 -0.0194,-5.52818 -0.0195,-11.05604 -0.005,-16.58424 0.002,-2.02196 -0.003,-4.04394 -0.0147,-6.06586 -0.086,-15.33218 1.84468,-26.78814 10.50374,-39.7903 0.62375,-0.94231 1.24749,-1.88461 1.89014,-2.85547 1.77401,-2.64852 3.56306,-5.28588 5.36401,-7.91614 1.23102,-1.79801 2.45857,-3.59835 3.6853,-5.39929 1.32057,-1.93867 2.6413,-3.87722 3.96299,-5.81512 4.57698,-6.71155 9.13061,-13.43881 13.68078,-20.16855 1.42974,-2.1146 2.85988,-4.22894 4.29007,-6.34323 7.09119,-10.48465 14.171413,-20.97669 21.250668,-31.469397 17.578703,-26.054335 17.578703,-26.054335 25.711487,-37.966888 3.404842,-4.990336 6.789852,-9.992824 10.143341,-15.017776 1.875512,-2.808988 3.756883,-5.614032 5.638458,-8.418961 0.904374,-1.351692 1.805981,-2.70524 2.704468,-4.060852 C -33.049844,13.482409 -22.225458,-0.12676492 0,0 Z"
       fill="#105715"
       transform="translate(344.85788,279.75949)"
       id="path3" />
    <path
       d="m 0,0 c 3.0841392,2.8423925 5.0538834,5.5610859 6.9960937,9.2695313 0.5516382,1.0414017 1.1032764,2.0828027 1.6716309,3.1557617 0.5840259,1.117778 1.1680518,2.235557 1.7697754,3.387207 1.258399,2.374803 2.518363,4.748684 3.78125,7.121094 0.318192,0.598991 0.636384,1.197982 0.964218,1.815124 2.983697,5.600855 6.103538,11.1184 9.254532,16.626282 5.231175,9.169829 10.255146,18.440798 15.21936,27.756592 4.169529,7.824418 8.384009,15.616943 12.711548,23.35498 3.205849,5.734518 6.363779,11.494128 9.506592,17.263428 0.505876,0.92853 1.011753,1.85706 1.532959,2.81372 2.013055,3.69652 4.024838,7.39372 6.036377,11.09107 6.466497,11.88335 12.977187,23.74146 19.522156,35.58172 5.223069,9.45143 10.388848,18.93231 15.519348,28.43439 3.55062,6.56948 7.15168,13.10845 10.79053,19.62939 3.65922,6.56405 7.25421,13.16225 10.84546,19.76367 2.88582,5.29894 5.78613,10.58955 8.70629,15.86963 0.32933,0.59549 0.65865,1.19097 0.99795,1.80449 0.67514,1.22064 1.35032,2.44125 2.02552,3.66185 0.50659,0.91579 0.50659,0.91579 1.02341,1.85007 0.33877,0.61238 0.67754,1.22475 1.02658,1.85568 5.4149,9.79299 10.734,19.63429 16.01541,29.50003 3.80533,7.08479 7.72089,14.09793 11.70801,21.08179 4.83237,8.46592 9.40003,17.03904 13.86475,25.70361 3.93192,7.59281 8.10234,15.02771 12.34936,22.44776 5.52051,9.69285 10.74557,19.53827 15.95679,29.39966 0.33178,0.62675 0.66355,1.2535 1.00538,1.89924 0.90472,1.71004 1.80705,3.42135 2.70922,5.13274 1.48989,2.82578 1.48989,2.82578 3.4895,5.72949 -0.0472,6.15946 -3.63604,11.05968 -6.6875,16.1875 -1.0932,1.87196 -2.18566,3.74435 -3.27734,5.61719 -0.78673,1.34143 -0.78673,1.34143 -1.58936,2.70996 -2.58308,4.44034 -5.02627,8.95404 -7.4458,13.48535 -0.66,0 -1.32,0 -2,0 -0.30067,-0.58153 -0.60135,-1.16306 -0.91113,-1.76221 -6.00781,-11.60465 -12.09241,-23.15858 -18.3772,-34.61572 -4.09653,-7.47414 -8.13122,-14.9805 -12.14917,-22.49707 -6.28212,-11.74851 -12.61003,-23.47157 -18.96533,-35.18066 -1.62666,-2.9987 -3.25096,-5.99865 -4.87451,-8.99903 -5.69145,-10.51729 -11.39852,-21.02565 -17.13526,-31.51831 -2.68354,-4.91485 -5.34918,-9.83866 -7.99365,-14.77466 C 110.0417,271.28945 104.4536,260.9604 98.625,250.75 92.84953,240.62561 87.34847,230.36812 81.886963,220.07251 c -0.673211,-1.26899 -1.346469,-2.53795 -2.019776,-3.80689 -0.328977,-0.62004 -0.657955,-1.24008 -0.996902,-1.87892 -3.48662,-6.56228 -7.044419,-13.08525 -10.626389,-19.59593 C 63.733648,186.57426 59.387956,178.28836 55,170 c -48.51,-0.33 -97.02,-0.66 -147,-1 1.383246,-4.14974 2.547932,-7.29786 4.582031,-11.02734 0.513128,-0.94497 1.026255,-1.88993 1.554932,-2.86353 0.552927,-1.00539 1.105854,-2.01078 1.675537,-3.04663 0.576775,-1.0576 1.15355,-2.11519 1.747803,-3.20483 4.453791,-8.13819 9.028724,-16.20484 13.623535,-24.26392 4.383502,-7.73053 8.507777,-15.58 12.586914,-23.47437 3.06758,-5.926059 6.223355,-11.781282 9.52417,-17.580073 C -42.828327,76.725184 -39.036524,69.864526 -35.25,63 c 0.344885,-0.625024 0.689769,-1.250048 1.045105,-1.894012 4.731137,-8.577514 9.423811,-17.174943 14.079895,-25.793488 3.869683,-7.160367 7.750385,-14.313935 11.6875,-21.4375 0.5904712,-1.074474 0.5904712,-1.074474 1.1928711,-2.170654 C -5.0033839,7.6655268 -2.6155845,3.8077217 0,0 Z"
       fill="#fbf6e1"
       transform="translate(632,425)"
       id="path4" />
    <path
       d="M 0,0 C 2.5666996,2.3193409 4.0662819,4.6846946 5.6796875,7.734375 6.18927,8.6884424 6.6988525,9.6425098 7.2238769,10.625488 7.7687476,11.656577 8.3136182,12.687666 8.875,13.75 c 4.375729,8.187559 8.828385,16.316589 13.4375,24.375 5.869115,10.290324 11.448223,20.72304 16.991455,31.190918 3.984314,7.517505 8.025547,14.994079 12.310303,22.345947 C 54,95.796478 54,95.796478 54,98 c -35.31,0 -70.62,0 -107,0 1.434784,-4.304352 2.619675,-7.394447 4.800781,-11.210938 0.558245,-0.985004 1.11649,-1.970009 1.691651,-2.984863 0.900933,-1.573703 0.900933,-1.573703 1.820068,-3.179199 1.277504,-2.25438 2.55351,-4.50961 3.828125,-6.765625 0.646465,-1.144043 1.29293,-2.288086 1.958984,-3.466797 2.879802,-5.141023 5.673513,-10.327103 8.462891,-15.517578 4.783583,-8.883693 9.689147,-17.689963 14.674805,-26.46167 C -10.413191,18.99437 -5.1925222,9.5062129 0,0 Z"
       fill="#decd87"
       transform="translate(632,471)"
       id="path5" />
    <path
       d="m 0,0 c 5.764168,3.3720383 11.14362,8.6432529 13.5,15 0.807847,8.257042 1.502753,17.033675 -3.386719,24.140625 C 5.0859559,44.93483 0.04865003,49.134364 -7.5,51 c -0.9620435,0.06526 -1.9240869,0.130518 -2.915283,0.197754 -3.225112,0.512836 -3.225112,0.512836 -4.936524,3.089355 -0.514255,1.008692 -1.02851,2.017383 -1.558349,3.056641 -0.59168,1.133005 -1.18336,2.266011 -1.792969,3.43335 -0.620485,1.24062 -1.240261,2.481595 -1.859375,3.7229 -0.647895,1.263399 -1.297657,2.525842 -1.949219,3.787354 -1.34069,2.601333 -2.669812,5.208164 -3.992676,7.818603 -1.907295,3.745979 -3.89262,7.445957 -5.897949,11.140137 -0.909635,1.691894 -0.909635,1.691894 -1.837646,3.417968 -1.154031,2.146379 -2.316041,4.288491 -3.486817,6.425782 -0.769449,1.454062 -0.769449,1.454062 -1.554443,2.937496 -0.454395,0.84297 -0.908789,1.68594 -1.376953,2.55445 -1.451072,4.16846 -0.173009,6.7141 1.657715,10.60595 0.636706,1.2027 1.280528,2.40166 1.930176,3.59742 0.346521,0.64982 0.693042,1.29965 1.050064,1.96917 1.125369,2.10622 2.260034,4.20725 3.395248,6.30817 0.775253,1.44532 1.550072,2.89088 2.324463,4.33667 C -20.955376,147.5296 -20.955376,147.5296 -10.5,165 c -5.94,9.9 -5.94,9.9 -12,20 -2.547315,-2.54732 -3.811849,-4.18931 -5.460937,-7.26172 -0.464627,-0.85908 -0.929253,-1.71816 -1.407959,-2.60327 -0.497015,-0.93143 -0.994029,-1.86286 -1.506104,-2.82251 -0.526018,-0.97461 -1.052036,-1.94922 -1.593994,-2.95337 C -34.150729,166.24194 -35.82561,163.12114 -37.5,160 c -2.142161,-3.98115 -4.288429,-7.96007 -6.4375,-11.9375 -0.531335,-0.98412 -1.062671,-1.96824 -1.610107,-2.98218 -4.504331,-8.3147 -9.134625,-16.55501 -13.81543,-24.77148 -0.513128,-0.90114 -1.026255,-1.80227 -1.554932,-2.73071 -0.451413,-0.78988 -0.902827,-1.57975 -1.36792,-2.39356 C -62.686545,114.46366 -63.087202,113.74275 -63.5,113 c -0.403879,-0.63067 -0.807759,-1.26135 -1.223877,-1.91113 -1.511682,-4.06856 -0.05973,-7.44136 1.615723,-11.266604 0.883048,-1.690928 0.883048,-1.690928 1.783935,-3.416016 0.3215,-0.620568 0.643001,-1.241136 0.974243,-1.880508 1.04591,-2.013007 2.103841,-4.019402 3.162476,-6.025742 0.726011,-1.39028 1.451511,-2.780825 2.176514,-4.171631 5.264343,-10.072224 10.659342,-20.07216 16.155517,-30.019775 4.002829,-6.019189 4.002829,-6.019189 4.792969,-12.621094 -0.813174,-1.520282 -1.632671,-3.037334 -2.472656,-4.542969 C -40.203672,29.925839 -41.180487,22.27576 -38.6875,14.449219 -35.404071,7.848158 -29.730187,2.1682366 -23.167969,-1.1953125 -15.899784,-3.3874738 -6.9237142,-3.1587452 0,0 Z"
       fill="#ddcc86"
       transform="translate(923.5,543)"
       id="path6" />
    <path
       d="m 0,0 c 2.3925,0.020625 4.785,0.04125 7.25,0.0625 0,5.94 0,11.88 0,18 -2.31,0.66 -4.62,1.32 -7,2 -2.6360893,2.636089 -2.2518583,3.856961 -2.2734375,7.53125 -0.020625,1.121484 -0.04125,2.242969 -0.0625,3.398437 -0.025699,2.348889 -0.04413,4.69787 -0.054687,7.046875 C -2.3545955,48.476069 -4.4962889,56.405805 -11.75,64.0625 c 0.5775,0.20625 1.155,0.4125 1.75,0.625 3.6712793,2.24356 5.7761754,5.543315 6.8500977,9.694824 0.4389864,2.942121 0.5608015,5.776192 0.6108398,8.750488 0.028359,1.143399 0.056719,2.286797 0.085937,3.464844 0.05225,2.400882 0.09647,4.80195 0.1328125,7.203125 0.030937,1.140821 0.061875,2.281641 0.09375,3.457031 0.019819,1.041724 0.039639,2.083448 0.060059,3.156738 0.2306858,2.62405 0.2306858,2.62405 1.57128906,4.44824 C 1.7381106,106.5548 1.7381106,106.5548 7.25,107.0625 c 0,5.94 0,11.88 0,18 -18.187257,0.85924 -18.187257,0.85924 -24.332031,-4.14453 -5.043233,-5.61015 -6.777902,-11.90418 -6.808594,-19.31641 -0.01934,-1.27617 -0.03867,-2.552341 -0.05859,-3.867185 -0.02895,-2.023408 -0.05078,-4.045708 -0.05127,-6.069336 -0.0033,-1.958827 -0.04013,-3.917506 -0.07764,-5.875977 -0.0093,-1.169663 -0.01869,-2.339326 -0.02832,-3.544433 -0.833832,-4.122975 -2.381383,-5.601684 -5.643555,-8.182129 -1.32,-0.33 -2.64,-0.66 -4,-1 0,-6.27 0,-12.54 0,-19 2.31,-1.32 4.62,-2.64 7,-4 2.53361,-3.269568 2.253127,-6.635123 2.273438,-10.671875 0.03094,-1.956797 0.03094,-1.956797 0.0625,-3.953125 0.0225,-2.058015 0.03904,-4.115696 0.04492,-6.173828 0.04526,-9.40549 0.212883,-16.18389 6.619141,-23.4785158 0.66,-0.5478515 1.32,-1.0957031 2,-1.6601562 0.66,-0.5658984 1.32,-1.1317969 2,-1.7148437 C -9.4702498,-0.47365984 -5.0022297,-0.06098964 0,0 Z"
       fill="#ddcc86"
       transform="translate(312.75,530.9375)"
       id="path7" />
    <path
       d="m 0,0 c 17.241029,-0.61575103 17.241029,-0.61575103 23,4 9.364154,9.364154 8.441202,19.090916 8.527344,31.59375 0.02191,1.260703 0.04383,2.521406 0.06641,3.820312 0.0071,1.144205 0.01418,2.288409 0.02148,3.467286 C 32.04496,46.364414 32.886527,48.220056 35,51 c 3.066808,1.826298 3.066808,1.826298 6,3 1.228092,16.425734 1.228092,16.425734 -1.746094,20.238281 C 37.199257,75.421261 35.226459,76.209207 33,77 c -1.361379,2.722757 -1.144746,4.923278 -1.175781,7.96875 -0.02385,1.211719 -0.0477,2.423438 -0.07227,3.671875 -0.04244,2.541504 -0.07398,5.083218 -0.09375,7.625 -0.185441,8.176655 -0.675984,16.328085 -6.407471,22.669925 -5.52737,5.12211 -10.6042,6.37358 -18.063232,6.18945 C 3.6296875,125.06313 3.6296875,125.06313 0,125 c 0,-5.94 0,-11.88 0,-18 3.465,-0.99 3.465,-0.99 7,-2 2.3083216,-3.46248 2.2505705,-4.83497 2.2734375,-8.917969 0.020625,-1.172402 0.04125,-2.344804 0.0625,-3.552734 0.025836,-2.458265 0.044187,-4.916622 0.054687,-7.375 C 9.5457585,77.272654 10.101662,71.411012 15.509277,65.292236 17,64 17,64 19,64 18.517891,63.40832 18.035781,62.816641 17.539062,62.207031 16.907422,61.416836 16.275781,60.626641 15.625,59.8125 14.998516,59.035195 14.372031,58.257891 13.726563,57.457031 10.555756,52.94473 9.7568327,49.227043 9.7265625,43.746094 9.7059375,42.56209 9.6853125,41.378086 9.6640625,40.158203 9.6379806,37.673898 9.6197755,35.189498 9.609375,32.705078 9.5861719,31.522363 9.5629688,30.339648 9.5390625,29.121094 9.5308447,28.042712 9.5226269,26.964331 9.5141602,25.853271 8.8711126,22.284755 7.8975622,21.136075 5,19 3.35,18.67 1.7,18.34 0,18 0,12.06 0,6.12 0,0 Z"
       fill="#ddcb86"
       transform="translate(390,531)"
       id="path8" />
    <path
       d="m 0,0 c 5.1900161,2.5635262 8.1819764,6.2377722 10.375,11.5625 0.859409,4.762557 0.434899,8.669722 -1.0625,13.25 -3.1130643,4.418543 -6.75923,8.02391 -11.9375,9.75 -6.0731655,0.710785 -11.422151,1.034394 -16.5625,-2.625 -4.049787,-3.637231 -6.143688,-6.674906 -6.746094,-12.210938 C -26.130778,14.886577 -26.061831,11.46852 -23.9375,7.0625 -16.876919,-0.57056083 -10.105863,-3.7321821 0,0 Z"
       fill="#f8f5e1"
       transform="translate(429.625,416.4375)"
       id="path9" />
    <path
       d="m 0,0 c 3.7229703,2.6592645 6.5554356,5.7358712 8.625,9.875 0.5277927,6.211714 0.7440364,11.758349 -3,17 -4.4218281,4.545689 -7.6148631,5.843598 -13.8125,6.25 -5.215725,-0.125797 -9.238426,-1.210571 -12.957031,-5.101563 -3.573351,-4.736572 -5.148356,-8.765854 -4.75,-14.722656 C -24.713704,7.787296 -21.758624,4.1927375 -17.75,0.375 -11.885449,-2.2314673 -6.0442538,-2.0147513 0,0 Z"
       fill="#f9f6e2"
       transform="translate(1029.375,422.125)"
       id="path10" />
    <path
       d="M 0,0 C 3.6403434,1.3335911 6.3514692,3.2677878 8.9375,6.1875 10.457206,10.21025 10.806009,13.760992 10,18 c -2.0659484,3.869554 -4.9703091,6.32659 -9,8 -4.0070259,0.770297 -7.5481162,0.878134 -11.105469,-1.273438 -5.648873,-4.775336 -5.648873,-4.775336 -6.167968,-8.898437 C -16.581389,8.0109039 -16.581389,8.0109039 -13.6875,4.5 -9.2249138,0.34875699 -6.0223576,-0.895066 0,0 Z"
       fill="#fcf6e1"
       transform="translate(914,554)"
       id="path11" />
    <path
       d="M 0,0 C 0.33,0 0.66,0 1,0 1.381333,1.9914056 1.7132558,3.9927908 2,6 1.67,6.33 1.34,6.66 1,7 0.89085151,9.1006158 0.85308164,11.204946 0.84178162,13.308365 c -0.007407,0.99971 -0.007407,0.99971 -0.0149636,2.019616 -0.0154469,2.249476 -0.0237549,4.498923 -0.0321403,6.748435 -0.009573,1.606041 -0.0195826,3.212079 -0.0299988,4.818115 -0.0271191,4.373752 -0.0480906,8.747515 -0.068002,13.121305 -0.0218165,4.565781 -0.0492263,9.131529 -0.0760562,13.697284 -0.0499857,8.652069 -0.0949026,17.304156 -0.13802237,25.956262 -0.0493223,9.8475 -0.10425891,19.694967 -0.15967959,29.542438 C 0.20900853,129.47451 0.10218928,149.73724 0,170 c -0.33,0 -0.66,0 -1,0 C -1.023353,148.57303 -1.040991,127.14606 -1.051812,105.71908 -1.056972,95.770313 -1.064003,85.821559 -1.075439,75.872803 -1.085399,67.202162 -1.091857,58.531527 -1.094088,49.86088 -1.095388,45.269239 -1.098458,40.677614 -1.10573,36.085978 -1.11252,31.764571 -1.11461,27.443188 -1.11311,23.121777 -1.1133852,21.535507 -1.11538,19.949236 -1.11921,18.36297 -1.12419,16.197055 -1.12299,14.031228 -1.12026,11.865311 -1.12164,10.047074 -1.12164,10.047074 -1.12305,8.1921053 -1.012871,5.3338988 -0.66021965,2.7762538 0,0 Z"
       fill="#c8d7b8"
       transform="translate(255,493)"
       id="path12" />
    <path
       d="m 0,0 c 24.75,0.495 24.75,0.495 50,1 0,0.33 0,0.66 0,1 -0.582158,0.00809 -1.164315,0.016174 -1.764114,0.024506 -6.050778,0.085955 -12.101224,0.1854548 -18.151657,0.2928772 -2.259059,0.038319 -4.518178,0.073167 -6.777344,0.1044922 -3.244447,0.045586 -6.488467,0.1035914 -9.732666,0.1640625 -1.012584,0.011551 -2.025168,0.023102 -3.068436,0.035004 -0.9407487,0.01987 -1.8814974,0.039739 -2.8507537,0.060211 -1.2424322,0.019986 -1.2424322,0.019986 -2.509964,0.040375 C 2.7040387,2.8773876 2.7040387,2.8773876 0,5 -0.33,4.01 -0.66,3.02 -1,2 -0.67,1.34 -0.34,0.68 0,0 Z"
       fill="#f0efe3"
       transform="translate(512,338)"
       id="path13" />
    <path
       d="m 0,0 c 0.66,0.33 1.32,0.66 2,1 -1.98,3.63 -3.96,7.26 -6,11 0.66,0 1.32,0 2,0 0,2.31 0,4.62 0,7 -1.32,0 -2.64,0 -4,0 C -6.6906352,11.510445 -5.7153378,6.9212274 -1,1 -0.67,0.67 -0.34,0.34 0,0 Z"
       fill="#e3ebd5"
       transform="translate(1010,424)"
       id="path14" />
    <path
       d="M 0,0 C -1.43429,0.67354499 -2.8725706,1.338597 -4.3125,2 -5.1130078,2.37125 -5.9135156,2.7425 -6.7382812,3.125 -9,4 -9,4 -12,4 c -0.257813,0.5723437 -0.515625,1.1446875 -0.78125,1.734375 -1.332409,2.4769149 -2.869311,4.399742 -4.71875,6.515625 -0.608437,0.706406 -1.216875,1.412812 -1.84375,2.140625 C -21,16 -21,16 -23,16 -20.768459,9.5520803 -16.437553,5.0704085 -10.613281,1.5625 -4.2760369,-1.4542378 -4.2760369,-1.4542378 0,0 Z"
       fill="#e3ecd2"
       transform="translate(520,658)"
       id="path15" />
    <path
       d="M 0,0 C 0.68359375,1.734375 0.68359375,1.734375 1,4 -0.21484375,6.140625 -0.21484375,6.140625 -1.9375,8.25 -2.5033984,8.9564063 -3.0692969,9.6628125 -3.6523438,10.390625 -4.3194336,11.187266 -4.3194336,11.187266 -5,12 -5.66,11.67 -6.32,11.34 -7,11 -5.2205491,6.9557935 -2.6047033,3.5392151 0,0 Z"
       fill="#e1ead4"
       transform="translate(510,341)"
       id="path16" />
    <path
       d="M 0,0 C 0.66,0.33 1.32,0.66 2,1 0.64458676,5.0662397 -1.5700947,6.5304682 -5,9 -5.99,8.67 -6.98,8.34 -8,8 -5.36,5.36 -2.72,2.72 0,0 Z"
       fill="#1f6423"
       transform="translate(319,287)"
       id="path17" />
    <path
       d="M 0,0 C 0.66,0.99 1.32,1.98 2,3 1.01,4.98 0.02,6.96 -1,9 -1.99,9 -2.98,9 -4,9 -2.801003,5.9168649 -1.5229952,2.9372051 0,0 Z"
       fill="#e5ecd5"
       transform="translate(983,680)"
       id="path18" />
    <path
       d="M 0,0 C 2.5668737,3.8503105 1.8328872,5.5856976 1,10 0.01,10.33 -0.98,10.66 -2,11 -1.8589225,9.5411989 -1.7119758,8.0829645 -1.5625,6.625 -1.481289,5.8128906 -1.4000781,5.0007812 -1.3164062,4.1640625 -1,2 -1,2 0,0 Z"
       fill="#246b26"
       transform="translate(989,423)"
       id="path19" />
    <path
       d="M 0,0 C 2.9686551,2.5445615 4.3619751,5.4899466 6,9 5.01,8.67 4.02,8.34 3,8 3,7.34 3,6.68 3,6 1.35,5.67 -0.3,5.34 -2,5 -1.34,3.35 -0.68,1.7 0,0 Z"
       fill="#1d6524"
       transform="translate(632,291)"
       id="path20" />
    <path
       d="M 0,0 C 2.7710688,2.3459185 3.5205928,4.147762 4.1875,7.6875 4.3460547,8.4957422 4.5046094,9.3039844 4.6679687,10.136719 4.7775391,10.751602 4.8871094,11.366484 5,12 2.1354614,8.589835 0.65296434,5.0930546 -1,1 -0.67,0.67 -0.34,0.34 0,0 Z"
       fill="#1e6621"
       transform="translate(787,931)"
       id="path21" />
    <path
       d="m 0,0 c 0.75,1.5625 0.75,1.5625 1,4 -1.13084437,2.5028641 -2.5213952,4.6700772 -4,7 -0.66,0 -1.32,0 -2,0 1.2252703,-4.0528171 2.6988049,-7.4436076 5,-11 z"
       fill="#e0e9cd"
       transform="translate(470,722)"
       id="path22" />
    <path
       d="M 0,0 C 0.66,0.99 1.32,1.98 2,3 0.35,4.98 -1.3,6.96 -3,9 -3.99,8.67 -4.98,8.34 -6,8 -4.02,5.36 -2.04,2.72 0,0 Z"
       fill="#e2ead0"
       transform="translate(484,376)"
       id="path23" />
    <path
       d="M 0,0 C 0.99,0 1.98,0 3,0 2.4264711,3.8713203 0.51295648,6.081728 -2,9 -2.6875,7.3125 -2.6875,7.3125 -3,5 -1.75,2.25 -1.75,2.25 0,0 Z"
       fill="#e4e9d2"
       transform="translate(947,743)"
       id="path24" />
    <path
       d="m 0,0 c 0.75,1.5625 0.75,1.5625 1,4 -1.13084437,2.5028641 -2.5213952,4.6700772 -4,7 -0.66,0 -1.32,0 -2,0 1.2252703,-4.0528171 2.6988049,-7.4436076 5,-11 z"
       fill="#2a692d"
       transform="translate(498,535)"
       id="path25" />
    <path
       d="M 0,0 C 0.66,0.99 1.32,1.98 2,3 1.67,3.66 1.34,4.32 1,5 0.34,5 -0.32,5 -1,5 -1.103125,5.639375 -1.20625,6.27875 -1.3125,6.9375 -1.539375,7.618125 -1.76625,8.29875 -2,9 -2.99,9.33 -3.98,9.66 -5,10 -3.6651187,6.4060889 -2.0397728,3.245093 0,0 Z"
       fill="#2d6a2f"
       transform="translate(512,510)"
       id="path26" />
    <path
       d="M 0,0 C 1.98,0 3.96,0 6,0 4.515,2.475 4.515,2.475 3,5 2.01,4.67 1.02,4.34 0,4 0,2.68 0,1.36 0,0 Z"
       fill="#ebefe4"
       transform="translate(478,339)"
       id="path27" />
    <path
       d="M 0,0 C 3.7952131,1.4909766 5.6104273,3.7570085 8,7 7.01,7.33 6.02,7.66 5,8 4.54625,7.195625 4.0925,6.39125 3.625,5.5625 2.2527433,2.9114343 2.2527433,2.9114343 0,2 0,1.34 0,0.68 0,0 Z"
       fill="#ecf0e1"
       transform="translate(290,818)"
       id="path28" />
    <path
       d="M 0,0 C 0.66,0.99 1.32,1.98 2,3 0.68,4.65 -0.64,6.3 -2,8 -2.99,7.67 -3.98,7.34 -5,7 -3.35,4.69 -1.7,2.38 0,0 Z"
       fill="#e1e8ce"
       transform="translate(500,354)"
       id="path29" />
    <path
       d="M 0,0 C 3.2554323,0.34879632 4.0187311,1.0213326 6.25,3.5625 6.8275,4.366875 7.405,5.17125 8,6 5,6 5,6 3.6132813,4.6875 2.4088542,3.125 1.2044271,1.5625 0,0 Z"
       fill="#e6ead7"
       transform="translate(246,768)"
       id="path30" />
    <path
       d="M 0,0 C 4.875,4.75 4.875,4.75 6,7 5.34,7.66 4.68,8.32 4,9 0,3.375 0,3.375 0,0 Z"
       fill="#226525"
       transform="translate(288,713)"
       id="path31" />
    <path
       d="M 0,0 C 0.6875,1.6875 0.6875,1.6875 1,4 -0.3125,6.75 -0.3125,6.75 -2,9 -2.66,9 -3.32,9 -4,9 -2.9412493,5.5968726 -1.9909785,2.9864677 0,0 Z"
       fill="#d6e2c6"
       transform="translate(482,700)"
       id="path32" />
    <path
       d="M 0,0 C 0.6875,1.6875 0.6875,1.6875 1,4 -0.3125,6.75 -0.3125,6.75 -2,9 -2.66,9 -3.32,9 -4,9 -2.9412493,5.5968726 -1.9909785,2.9864677 0,0 Z"
       fill="#d6e3c5"
       transform="translate(494,678)"
       id="path33" />
    <path
       d="M 0,0 C 2.4007296,2.8808755 4.4729104,5.5640483 6,9 5.34,9.66 4.68,10.32 4,11 3.3259169,9.7330849 2.660995,8.4612925 2,7.1875 1.62875,6.4798047 1.2575,5.7721094 0.875,5.0429687 0,3 0,3 0,0 Z"
       fill="#eaf0db"
       transform="translate(720,653)"
       id="path34" />
    <path
       d="M 0,0 C 0.66,1.32 1.32,2.64 2,4 1.01,5.32 0.02,6.64 -1,8 -1.99,7.67 -2.98,7.34 -4,7 -2.68,4.69 -1.36,2.38 0,0 Z"
       fill="#226b28"
       transform="translate(996,568)"
       id="path35" />
    <path
       d="M 0,0 C 0.66,0.33 1.32,0.66 2,1 1.2165428,2.1721954 0.42297164,3.3376367 -0.375,4.5 -0.81585938,5.1496875 -1.2567188,5.799375 -1.7109375,6.46875 -2.1363281,6.9740625 -2.5617187,7.479375 -3,8 -3.66,8 -4.32,8 -5,8 -3.628455,5.045903 -2.0113628,2.5599162 0,0 Z"
       fill="#e6eed7"
       transform="translate(282,451)"
       id="path36" />
    <path
       d="M 0,0 C 0.75,1.75 0.75,1.75 1,4 -0.9375,6.25 -0.9375,6.25 -3,8 -3.66,7.34 -4.32,6.68 -5,6 -3.35,4.02 -1.7,2.04 0,0 Z"
       fill="#236928"
       transform="translate(484,339)"
       id="path37" />
    <path
       d="m 0,0 c 3.63,0.33 7.26,0.66 11,1 0,0.33 0,0.66 0,1 C 8.0214844,2.2929688 8.0214844,2.2929688 5.0429687,2.5859375 2.7001186,2.9266539 2.7001186,2.9266539 0,5 -0.33,4.01 -0.66,3.02 -1,2 -0.67,1.34 -0.34,0.68 0,0 Z"
       fill="#edecd8"
       transform="translate(512,338)"
       id="path38" />
    <path
       d="M 0,0 C 2.4007296,2.8808755 4.4729104,5.5640483 6,9 5.34,9.66 4.68,10.32 4,11 3.3259169,9.7330849 2.660995,8.4612925 2,7.1875 1.62875,6.4798047 1.2575,5.7721094 0.875,5.0429687 0,3 0,3 0,0 Z"
       fill="#1e5b20"
       transform="translate(716,802)"
       id="path39" />
    <path
       d="M 0,0 C 2.31,1.98 4.62,3.96 7,6 6.34,6.66 5.68,7.32 5,8 0,2.25 0,2.25 0,0 Z"
       fill="#e7ecda"
       transform="translate(229,746)"
       id="path40" />
    <path
       d="M 0,0 C 0.6875,1.6875 0.6875,1.6875 1,4 -0.3125,6.75 -0.3125,6.75 -2,9 -2.66,9 -3.32,9 -4,9 -2.801003,5.9168649 -1.5229952,2.9372051 0,0 Z"
       fill="#dee9cd"
       transform="translate(489,687)"
       id="path41" />
    <path
       d="M 0,0 C 0.66,0 1.32,0 2,0 1.1875,1.9375 1.1875,1.9375 0,4 -0.99,4.33 -1.98,4.66 -3,5 -3,5.66 -3,6.32 -3,7 -3.66,6.67 -4.32,6.34 -5,6 -3.3840517,3.9588021 -1.7143618,1.9592706 0,0 Z"
       fill="#1b5b21"
       transform="translate(473,354)"
       id="path42" />
  </g>
</svg>
